<svg xmlns="http://www.w3.org/2000/svg" viewBox="0 0 1440 320"><path fill="#7bdcb544" fill-opacity="1" d="M0,160L16,160C32,160,64,160,96,160C128,160,160,160,192,149.3C224,139,256,117,288,106.7C320,96,352,96,384,85.3C416,75,448,53,480,64C512,75,544,117,576,133.3C608,149,640,139,672,154.7C704,171,736,213,768,213.3C800,213,832,171,864,165.3C896,160,928,192,960,197.3C992,203,1024,181,1056,160C1088,139,1120,117,1152,138.7C1184,160,1216,224,1248,218.7C1280,213,1312,139,1344,122.7C1376,107,1408,149,1424,170.7L1440,192L1440,0L1424,0C1408,0,1376,0,1344,0C1312,0,1280,0,1248,0C1216,0,1184,0,1152,0C1120,0,1088,0,1056,0C1024,0,992,0,960,0C928,0,896,0,864,0C832,0,800,0,768,0C736,0,704,0,672,0C640,0,608,0,576,0C544,0,512,0,480,0C448,0,416,0,384,0C352,0,320,0,288,0C256,0,224,0,192,0C160,0,128,0,96,0C64,0,32,0,16,0L0,0Z"></path></svg>
