<svg height="100%" width="100%" id="svg" viewBox="0 0 1440 400" xmlns="http://www.w3.org/2000/svg" class="transition duration-300 ease-in-out delay-150"><path d="M 0,400 C 0,400 0,80 0,80 C 51.798694606664384,86.55513569220199 103.59738921332877,93.11027138440399 178,89 C 252.40261078667123,84.88972861559601 349.40913775334934,70.11405015458605 416,68 C 482.59086224665066,65.88594984541395 518.7660597732737,76.4335279972518 580,75 C 641.2339402267263,73.5664720027482 727.5266231535554,60.15183785640673 806,65 C 884.4733768464446,69.84816214359327 955.1274476125043,92.95912057712127 1025,102 C 1094.8725523874957,111.04087942287873 1163.9635863964272,106.01167983510821 1233,100 C 1302.0364136035728,93.98832016489179 1371.0182068017864,86.99416008244589 1440,80 C 1440,80 1440,400 1440,400 Z" stroke="none" stroke-width="0" fill="#7bdcb544" class="transition-all duration-300 ease-in-out delay-150"></path><path d="M 0,400 C 0,400 0,160 0,160 C 80.54208175884577,147.0443146684988 161.08416351769154,134.0886293369976 236,136 C 310.91583648230846,137.9113706630024 380.20542768807974,154.68979732050843 433,157 C 485.79457231192026,159.31020267949157 522.0941257299896,147.15218138096873 580,148 C 637.9058742700104,148.84781861903127 717.4180693919616,162.70147715561663 788,163 C 858.5819306080384,163.29852284438337 920.2335967021643,150.04190999656475 996,150 C 1071.7664032978357,149.95809000343525 1161.6475437993815,163.13088285812435 1238,167 C 1314.3524562006185,170.86911714187565 1377.1762281003093,165.43455857093784 1440,160 C 1440,160 1440,400 1440,400 Z" stroke="none" stroke-width="0" fill="#7bdcb566" class="transition-all duration-300 ease-in-out delay-150"></path><path d="M 0,400 C 0,400 0,240 0,240 C 44.801786327722425,232.93644795602884 89.60357265544485,225.8728959120577 168,218 C 246.39642734455515,210.1271040879423 358.387495705943,201.444864307798 441,214 C 523.612504294057,226.555135692202 576.8464445207833,260.34764685675026 639,257 C 701.1535554792167,253.65235314324974 772.2267262109241,213.16454826520095 843,210 C 913.7732737890759,206.83545173479905 984.2466506355206,240.9941600824459 1054,253 C 1123.7533493644794,265.0058399175541 1192.786671246994,254.85881140501544 1257,249 C 1321.213328753006,243.14118859498456 1380.606664376503,241.57059429749228 1440,240 C 1440,240 1440,400 1440,400 Z" stroke="none" stroke-width="0" fill="#7bdcb588" class="transition-all duration-300 ease-in-out delay-150"></path><path d="M 0,400 C 0,400 0,320 0,320 C 73.84610099622122,318.19718309859155 147.69220199244245,316.3943661971831 214,318 C 280.30779800755755,319.6056338028169 339.07729302645134,324.61971830985914 395,328 C 450.92270697354866,331.38028169014086 503.998625901752,333.1267605633803 585,326 C 666.001374098248,318.8732394366197 774.9282033665407,302.8732394366197 858,303 C 941.0717966334593,303.1267605633803 998.2885606320854,319.3802816901409 1049,328 C 1099.7114393679146,336.6197183098591 1143.9175541051184,337.60563380281684 1208,335 C 1272.0824458948816,332.39436619718316 1356.041222947441,326.1971830985916 1440,320 C 1440,320 1440,400 1440,400 Z" stroke="none" stroke-width="0" fill="#7bdcb5ff" class="transition-all duration-300 ease-in-out delay-150"></path></svg>
